HIERARCHY
ROOT ROOT
{
	OFFSET 0.000000 56.020000 -5.659234
	CHANNELS 6 Xposition Yposition Zposition Xrotation Yrotation Zrotation 
	JOINT C_spine0001_bind_JNT
	{
		OFFSET 0.000000 1.618999 0.000000
		CHANNELS 3 Xrotation Yrotation Zrotation
		JOINT C_spine0002_bind_JNT
		{
			OFFSET 0.000000 4.942001 0.000001
			CHANNELS 3 Xrotation Yrotation Zrotation
			JOINT C_spine0003_bind_JNT
			{
				OFFSET 0.000000 4.942001 -0.000000
				CHANNELS 3 Xrotation Yrotation Zrotation
				JOINT C_neck0001_bind_JNT
				{
					OFFSET 0.000000 17.026009 -0.000000
					CHANNELS 3 Xrotation Yrotation Zrotation
					JOINT C_neck0002_bind_JNT
					{
						OFFSET 0.000000 3.249985 0.000000
						CHANNELS 3 Xrotation Yrotation Zrotation
						JOINT C_head_bind_JNT
						{
							OFFSET 0.000000 5.278008 0.000000
							CHANNELS 3 Xrotation Yrotation Zrotation
							End Site
							{
								OFFSET 0.000000 0.000000 0.000000
							}
						}
					}
				}
				JOINT L_clavicle_bind_JNT
				{
					OFFSET 4.590000 12.067001 0.834000
					CHANNELS 3 Xrotation Yrotation Zrotation
					JOINT L_armUpper0001_bind_JNT
					{
						OFFSET 7.812635 0.512001 -3.452945
						CHANNELS 3 Xrotation Yrotation Zrotation
						JOINT L_armLower0001_bind_JNT
						{
							OFFSET 15.265892 -6.552116 -0.058157
							CHANNELS 3 Xrotation Yrotation Zrotation
							JOINT L_hand0001_bind_JNT
							{
								OFFSET 14.747667 -6.369995 5.049225
								CHANNELS 3 Xrotation Yrotation Zrotation
								End Site
								{
									OFFSET 0.000000 0.000000 0.000000
								}
							}
						}
					}
				}
				JOINT R_clavicle_bind_JNT
				{
					OFFSET -4.590000 12.067001 0.834000
					CHANNELS 3 Xrotation Yrotation Zrotation
					JOINT R_armUpper0001_bind_JNT
					{
						OFFSET -7.812635 0.512001 -3.452945
						CHANNELS 3 Xrotation Yrotation Zrotation
						JOINT R_armLower0001_bind_JNT
						{
							OFFSET -15.265890 -6.552124 -0.058160
							CHANNELS 3 Xrotation Yrotation Zrotation
							JOINT R_hand0001_bind_JNT
							{
								OFFSET -14.746784 -6.369629 5.048937
								CHANNELS 3 Xrotation Yrotation Zrotation
								End Site
								{
									OFFSET 0.000000 0.000000 0.000000
								}
							}
						}
					}
				}
			}
		}
	}
	JOINT C_pelvis0001_bind_JNT
	{
		OFFSET -0.000000 0.000000 0.000000
		CHANNELS 3 Xrotation Yrotation Zrotation
		JOINT L_legUpper0001_bind_JNT
		{
			OFFSET 6.599999 -6.027000 0.539000
			CHANNELS 3 Xrotation Yrotation Zrotation
			JOINT L_legLower0001_bind_JNT
			{
				OFFSET -0.140713 -19.187443 0.040261
				CHANNELS 3 Xrotation Yrotation Zrotation
				JOINT L_foot0001_bind_JNT
				{
					OFFSET -0.132215 -18.028637 -1.138370
					CHANNELS 3 Xrotation Yrotation Zrotation
					JOINT L_foot0002_bind_JNT
					{
						OFFSET 0.007014 -4.693133 9.886524
						CHANNELS 3 Xrotation Yrotation Zrotation
						End Site
						{
							OFFSET 0.000000 0.000000 0.000000
						}
					}
				}
			}
		}
		JOINT R_legUpper0001_bind_JNT
		{
			OFFSET -6.599999 -6.027000 0.539000
			CHANNELS 3 Xrotation Yrotation Zrotation
			JOINT R_legLower0001_bind_JNT
			{
				OFFSET 0.140710 -19.187164 0.040550
				CHANNELS 3 Xrotation Yrotation Zrotation
				JOINT R_foot0001_bind_JNT
				{
					OFFSET 0.132215 -18.028633 -1.138362
					CHANNELS 3 Xrotation Yrotation Zrotation
					JOINT R_foot0002_bind_JNT
					{
						OFFSET -0.007014 -4.693128 9.886505
						CHANNELS 3 Xrotation Yrotation Zrotation
						End Site
						{
							OFFSET 0.000000 0.000000 0.000000
						}
					}
				}
			}
		}
	}
}
MOTION
Frames: 10
Frame Time: 0.033333
0.000000 48.701176 0.000000 0.013579 -29.768982 -0.032576 15.728967 29.750669 -7.215938 -2.130806 0.670506 -0.368809 6.732213 0.510785 0.806203 13.375213 -3.277089 0.094387 0.224934 -1.503119 0.239725 -11.294560 -4.954110 -0.541513 10.223695 3.206883 10.233972 -12.781924 0.165616 -63.070614 1.535165 1.571824 -7.730760 1.951293 -12.595605 -27.452402 9.127076 -2.751492 -3.853476 -15.152002 13.778064 49.457497 -13.439656 27.709236 38.565247 1.025675 9.323893 23.498537 14.960134 28.966280 -5.779334 -26.950512 6.338645 6.438933 15.412967 -2.629122 -0.751056 2.653721 -7.003316 -7.965886 -3.689521 -2.134685 1.336119 -15.117506 -2.725737 0.168572 15.943586 0.832869 0.763478 -8.672164 4.610592 -3.251408 -4.760218 0.511344 -0.524348
0.212730 48.582684 0.016793 0.008204 -31.117859 -0.027137 16.977749 31.229683 -7.897617 -2.588745 0.456759 -0.511469 6.185475 0.204611 0.328645 13.521073 -3.379391 0.177178 -0.197812 -0.654273 -0.280446 -11.902891 -5.285113 -1.227689 10.596655 3.310868 10.118435 -12.210222 -0.219755 -62.975986 0.125592 -0.293422 -6.979928 3.117732 -10.865557 -27.387230 8.758389 -2.448223 -3.624924 -12.637016 13.288022 49.547279 -13.839324 30.343155 36.991642 -0.865998 8.145222 23.495083 16.300924 30.520678 -6.429096 -27.872271 5.980471 5.581710 15.731245 -2.898142 -0.301049 1.796802 -7.022295 -7.700851 -3.505920 -1.744469 1.175414 -17.262074 -2.946999 -0.707616 16.958740 1.075658 0.684074 -8.164998 4.035095 -3.604489 -5.088715 0.550183 -0.190919
0.381769 48.544518 -0.036522 0.021156 -31.161354 -0.019594 17.016323 30.749582 -8.030098 -2.658798 0.435040 -0.660847 6.509416 0.240174 0.189282 13.343382 -3.402272 0.295091 -0.179797 -0.450833 -0.448207 -12.085959 -5.686336 -1.036836 10.496457 3.236765 10.220232 -12.183146 0.146793 -62.880192 0.414266 -0.601004 -7.173690 3.420525 -10.761076 -27.322752 8.709370 -2.202381 -3.533561 -13.354771 13.648784 50.106102 -13.560403 31.025587 36.047054 -0.569035 8.321472 24.094542 16.029480 29.874897 -6.489341 -27.997774 6.379104 5.962452 15.450875 -3.104726 -0.324343 2.322534 -7.414573 -6.749677 -3.634726 -1.403421 0.501014 -17.086494 -3.173026 -0.294266 17.232235 1.459411 0.696763 -8.706269 4.100662 -3.877517 -4.886032 0.589801 -0.050403
0.597791 48.503624 0.023352 0.016074 -30.958086 -0.030598 17.066280 30.213734 -8.001462 -2.582403 0.428327 -0.695228 6.422272 0.179668 0.182171 13.323223 -3.385948 0.226990 -0.022431 -0.502043 -0.410542 -11.995917 -5.659015 -1.059542 10.484179 3.335074 10.005610 -12.076129 0.094968 -62.815510 0.666479 -0.495152 -6.774268 3.316162 -10.802688 -27.375681 8.922205 -2.045864 -3.659499 -13.730820 13.776291 50.437603 -13.255215 30.898575 35.527550 -0.118594 8.849920 24.357740 16.107012 29.266878 -6.496319 -27.881439 6.587637 5.923567 15.210137 -3.296365 -0.338509 1.869847 -7.564216 -6.431553 -3.372065 -1.330196 0.409757 -17.211658 -3.176147 -0.441879 17.227037 1.595338 0.674002 -8.644763 4.201580 -3.705896 -5.001718 0.621054 0.038793
0.818990 48.475426 0.061541 0.018367 -31.390196 -0.022264 17.395924 30.147619 -8.332608 -2.565484 0.497622 -0.707374 6.484944 0.176627 0.093357 13.346230 -3.335699 0.214724 -0.099963 -0.407912 -0.374065 -11.997594 -5.612669 -1.088313 10.417083 3.493361 9.962558 -12.072858 0.120856 -62.621227 0.623465 -0.378333 -6.860209 3.481277 -10.845532 -27.021976 9.046858 -1.930309 -3.756262 -14.250553 13.778403 50.690823 -12.723165 30.606316 34.673725 -0.063297 9.222718 24.558289 16.328367 29.232634 -6.695899 -28.035524 6.636894 5.845611 15.146162 -3.347306 -0.432702 1.636782 -7.591249 -6.095560 -3.309996 -1.304981 0.268470 -17.347591 -3.112529 -0.823017 17.498154 1.587074 0.604513 -8.607488 4.542782 -3.319245 -5.418075 0.602441 0.110365
1.083874 48.442684 0.155523 0.016207 -31.555397 -0.026457 17.431435 29.975725 -8.385060 -2.538164 0.466627 -0.758579 6.503861 0.176957 0.091822 13.358180 -3.346205 0.211809 -0.122437 -0.431594 -0.359753 -12.123981 -5.704574 -1.059617 10.362433 3.631518 9.866339 -12.224050 0.150560 -62.543179 0.718280 -0.150241 -6.510548 3.345373 -10.894832 -26.911680 9.138011 -2.024939 -3.789203 -14.695901 13.732141 51.030300 -12.123667 29.986599 33.640640 -0.105273 9.483245 24.616573 16.346365 28.980639 -6.764331 -27.866230 6.719933 5.688502 15.040945 -3.140923 -0.419559 1.335433 -7.607224 -5.882528 -3.187406 -1.272190 0.389915 -17.325321 -3.072027 -0.993136 17.497026 1.642220 0.550159 -8.618722 4.790988 -3.038409 -5.500761 0.644151 0.117900
1.372365 48.429504 0.283997 0.020030 -31.816887 -0.015926 17.645712 29.779907 -8.699959 -2.580838 0.519737 -0.765515 6.606751 0.191104 0.001497 13.209835 -3.311790 0.247102 -0.100468 -0.402752 -0.322040 -12.296251 -5.716919 -1.130888 10.225827 3.774391 9.930554 -12.334955 0.191647 -62.448360 0.662187 0.038317 -6.278238 3.288535 -10.948815 -26.536186 9.268978 -2.017721 -3.847284 -15.174839 13.713627 51.552574 -11.633214 29.045944 32.282520 -0.147289 9.998925 24.665064 16.635855 28.802244 -6.997978 -28.044029 6.970674 5.435698 15.202111 -3.026275 -0.403125 0.922390 -7.469709 -5.667214 -3.089432 -1.388758 0.616284 -17.574493 -3.143943 -1.333218 17.716143 1.866032 0.399415 -8.633921 5.089330 -2.567818 -5.813459 0.605612 0.195881
1.659255 48.409470 0.416088 0.012811 -31.743244 -0.027061 17.809023 29.405876 -8.834359 -2.631842 0.569587 -0.808261 6.629400 0.210397 -0.053847 13.120848 -3.435998 0.326580 -0.083102 -0.393376 -0.447846 -12.432937 -5.790044 -0.962230 10.164029 3.869197 9.863219 -12.505108 0.257758 -62.318665 0.535574 0.331725 -5.873335 3.333175 -11.158071 -26.435156 9.302970 -2.197336 -3.903593 -15.477756 13.676387 51.967903 -11.229998 27.983538 31.184023 -0.455603 10.449847 24.350975 16.752203 28.372040 -7.080703 -28.051689 7.173643 5.276039 15.056222 -2.854203 -0.461337 0.837688 -7.492296 -5.383628 -2.950881 -1.362497 0.698062 -17.655371 -3.021968 -1.572154 17.796686 1.957383 0.369865 -8.647853 5.308614 -2.322250 -5.996452 0.548431 0.290921
1.947812 48.415684 0.542273 0.019498 -31.797756 -0.020416 17.942783 29.219793 -9.101630 -2.529110 0.556462 -0.819316 6.661416 0.203169 -0.060140 13.005799 -3.356631 0.317047 -0.101845 -0.383065 -0.371832 -12.633598 -5.765935 -1.064845 10.084014 4.077348 9.734170 -12.622853 0.125665 -61.992359 0.256899 0.389692 -5.847097 3.258217 -11.259815 -26.033377 9.404104 -2.122495 -3.986685 -15.781643 13.521371 52.317955 -11.032062 26.833792 30.111103 -0.720943 10.924689 24.054533 16.913504 28.262712 -7.310504 -27.974148 7.369827 5.075911 14.997237 -2.978098 -0.423474 0.505148 -7.255483 -5.155633 -2.817487 -1.534404 0.845346 -17.816851 -3.221457 -1.927145 17.848345 2.024144 0.437875 -8.363010 5.707796 -2.064440 -6.412714 0.637947 0.388742
2.225974 48.412128 0.669944 0.020252 -31.694016 -0.024661 17.998705 28.872349 -9.183461 -2.530118 0.572731 -0.861069 6.742301 0.211932 -0.141933 13.015136 -3.338678 0.394237 -0.119299 -0.357825 -0.420449 -12.771111 -5.795295 -1.008364 10.051825 4.227078 9.527168 -12.829447 0.202897 -61.783585 0.013521 0.404211 -5.644943 3.172675 -11.459543 -25.788567 9.425001 -2.114787 -3.995975 -15.789830 13.230009 52.404545 -11.024566 25.789549 29.518484 -0.965854 11.400511 23.556015 16.987703 27.860325 -7.406022 -27.950237 7.604544 4.982419 14.930523 -2.917678 -0.403217 0.276381 -7.164855 -4.992047 -2.679009 -1.554875 0.972656 -17.983196 -3.282357 -2.084326 18.096376 2.230002 0.348681 -8.131729 5.948403 -1.784974 -6.830011 0.722504 0.454648
